<?xml version="1.0" encoding="UTF-8"?>
<svg xmlns="http://www.w3.org/2000/svg" width="960" height="540" viewBox="0 0 960 540">
  <style>
    text { font-family: 'DejaVu Sans', Arial, sans-serif; font-size: 16px; fill: #1f2933; }
    rect { fill: #f8fafc; stroke: #1f7a8c; stroke-width: 2; rx: 8; ry: 8; }
    line { stroke: #1f7a8c; stroke-width: 2; marker-end: url(#arrow); }
  </style>
  <defs>
    <marker id="arrow" markerWidth="10" markerHeight="10" refX="10" refY="5" orient="auto" markerUnits="strokeWidth">
      <path d="M0,0 L10,5 L0,10 z" fill="#1f7a8c" />
    </marker>
  </defs>
  <rect x="40" y="60" width="160" height="100" />
  <text x="120" y="110" text-anchor="middle">Client</text>
  <text x="120" y="135" text-anchor="middle">(SDK/CLI)</text>

  <rect x="240" y="60" width="200" height="100" />
  <text x="340" y="110" text-anchor="middle">API Gateway</text>
  <text x="340" y="135" text-anchor="middle">SigV4, HTTP</text>

  <rect x="480" y="20" width="200" height="100" />
  <text x="580" y="60" text-anchor="middle">Auth Service</text>
  <text x="580" y="85" text-anchor="middle">Keys &amp; Policies</text>

  <rect x="480" y="140" width="200" height="100" />
  <text x="580" y="180" text-anchor="middle">Metadata</text>
  <text x="580" y="205" text-anchor="middle">Postgres/Cockroach</text>

  <rect x="720" y="90" width="200" height="120" />
  <text x="820" y="140" text-anchor="middle">Placement Router</text>
  <text x="820" y="165" text-anchor="middle">Consistent Hashing</text>

  <rect x="200" y="240" width="660" height="220" />
  <text x="530" y="275" text-anchor="middle">Storage Nodes (N ≥ 6)</text>

  <rect x="240" y="310" width="180" height="120" />
  <text x="330" y="360" text-anchor="middle">Node A</text>
  <text x="330" y="385" text-anchor="middle">RS Encode + SSD</text>

  <rect x="460" y="310" width="180" height="120" />
  <text x="550" y="360" text-anchor="middle">Node B</text>
  <text x="550" y="385" text-anchor="middle">Chunk Service</text>

  <rect x="680" y="310" width="180" height="120" />
  <text x="770" y="360" text-anchor="middle">Node C</text>
  <text x="770" y="385" text-anchor="middle">Scrub &amp; Repair</text>

  <line x1="200" y1="110" x2="240" y2="110" />
  <line x1="440" y1="110" x2="480" y2="70" />
  <line x1="440" y1="110" x2="480" y2="190" />
  <line x1="680" y1="150" x2="720" y2="150" />
  <line x1="720" y1="210" x2="530" y2="310" />
  <line x1="720" y1="210" x2="750" y2="310" />
</svg>
